# xmcd CD database file
#
# Track frame offsets:
#	150
#	15560
#	29102
#	47805
#	59640
#	75714
#	90921
#	107503
#	122777
#	136921
#
# Disc length: 2038 seconds
#
# Revision: 0
# Processed by: cddbd v1.5.1PL0 Copyright (c) Steve Scherf et al.
# Submitted via: CDex 1.50Beta7
#
DISCID=7f07f40a
DTITLE=Forty5 South - Too Much, Too Fast
DYEAR=2004
DGENRE=Country
TTITLE0=Too Much, Too Fast
TTITLE1=Back Of My Truck
TTITLE2=A Year Ago Today
TTITLE3=Jim Beam
TTITLE4=I Still Remember
TTITLE5=Seems Like Yesterday
TTITLE6=She Likes Me Like That
TTITLE7=Nothing You Can Do
TTITLE8=Everything I Ain't Got
TTITLE9=One Of Those Things
EXTD=YEAR: 2004
EXTT0=
EXTT1=
EXTT2=
EXTT3=
EXTT4=
EXTT5=
EXTT6=
EXTT7=
EXTT8=
EXTT9=
PLAYORDER=
